<svg width="1400" height="820" viewBox="0 0 1400 820" fill="none" xmlns="http://www.w3.org/2000/svg" role="img" aria-labelledby="title desc">
  <title id="title">Humanity float compression graph</title>
  <desc id="desc">Editorial supply comparison for Humanity Protocol showing how small the visible public Ethereum-side inventory is relative to max and circulating supply.</desc>
  <defs>
    <filter id="grain" x="-20%" y="-20%" width="140%" height="140%">
      <feTurbulence type="fractalNoise" baseFrequency="0.84" numOctaves="2" stitchTiles="stitch" result="noise"/>
      <feColorMatrix in="noise" type="saturate" values="0"/>
      <feComponentTransfer>
        <feFuncA type="table" tableValues="0 0.05"/>
      </feComponentTransfer>
    </filter>
  </defs>
  <rect width="1400" height="820" fill="#F1E6CF"/>
  <rect width="1400" height="820" fill="#F1E6CF" filter="url(#grain)"/>

  <rect x="72" y="60" width="1256" height="704" fill="#F6EEDB"/>
  <rect x="90" y="78" width="1256" height="704" fill="#2D2430"/>
  <rect x="72" y="60" width="1256" height="704" fill="#F6EEDB" stroke="#2D2430" stroke-width="3"/>

  <text x="112" y="132" fill="#2D2430" font-family="Georgia, 'Times New Roman', serif" font-size="38" font-weight="700">Visible Float Compression</text>
  <text x="112" y="168" fill="#7D3A3E" font-family="Arial, Helvetica, sans-serif" font-size="18">
    <tspan x="112" dy="0">This chart is not saying only 2.2819M H can trade.</tspan>
    <tspan x="112" dy="24">It is showing how small the visible public inventory still is.</tspan>
  </text>

  <text x="126" y="278" fill="#8C2F39" font-family="Arial, Helvetica, sans-serif" font-size="18" font-weight="700">MAX SUPPLY</text>
  <rect x="318" y="242" width="760" height="66" fill="#E7A0A4"/>
  <rect x="336" y="260" width="760" height="66" fill="#B3472F"/>
  <rect x="318" y="242" width="760" height="66" fill="#F7E9D7" stroke="#2D2430" stroke-width="3"/>
  <rect x="318" y="242" width="760" height="66" fill="#B3472F"/>
  <text x="1110" y="282" fill="#2D2430" font-family="Arial, Helvetica, sans-serif" font-size="23" font-weight="700">10.0B H</text>

  <text x="126" y="410" fill="#8C2F39" font-family="Arial, Helvetica, sans-serif" font-size="18" font-weight="700">CIRCULATING SUPPLY</text>
  <rect x="318" y="374" width="760" height="66" fill="#D98858"/>
  <rect x="336" y="392" width="760" height="66" fill="#6B2B30"/>
  <rect x="318" y="374" width="760" height="66" fill="#F7E9D7" stroke="#2D2430" stroke-width="3"/>
  <rect x="318" y="374" width="207" height="66" fill="#6B2B30"/>
  <text x="1110" y="408" fill="#2D2430" font-family="Arial, Helvetica, sans-serif" font-size="22" font-weight="700">
    <tspan x="1110" dy="0">2.7268B H</tspan>
    <tspan x="1110" dy="22">27.27% of max</tspan>
  </text>

  <text x="126" y="542" fill="#8C2F39" font-family="Arial, Helvetica, sans-serif" font-size="18" font-weight="700">VISIBLE PUBLIC DEX H</text>
  <rect x="318" y="506" width="760" height="66" fill="#E7A0A4"/>
  <rect x="336" y="524" width="760" height="66" fill="#B3472F"/>
  <rect x="318" y="506" width="760" height="66" fill="#F7E9D7" stroke="#2D2430" stroke-width="3"/>
  <rect x="318" y="506" width="8" height="66" fill="#2D2430"/>
  <text x="1110" y="540" fill="#2D2430" font-family="Arial, Helvetica, sans-serif" font-size="22" font-weight="700">
    <tspan x="1110" dy="0">2.2819M H</tspan>
    <tspan x="1110" dy="22">0.023% of max</tspan>
  </text>

  <rect x="112" y="632" width="1176" height="96" fill="#D98858"/>
  <rect x="130" y="650" width="1176" height="96" fill="#6B2B30"/>
  <rect x="112" y="632" width="1176" height="96" fill="#F7E9D7" stroke="#2D2430" stroke-width="3"/>
  <text x="146" y="686" fill="#2D2430" font-family="Arial, Helvetica, sans-serif" font-size="20" font-weight="700">READ</text>
  <text x="252" y="678" fill="#2D2430" font-family="Arial, Helvetica, sans-serif" font-size="18">
    <tspan x="252" dy="0">This is why the public market can look tradable and still stay unstable.</tspan>
    <tspan x="252" dy="24">Visible depth is small enough that marginal demand can move price fast.</tspan>
  </text>
</svg>
