<svg width="1600" height="520" viewBox="0 0 1600 520" fill="none" xmlns="http://www.w3.org/2000/svg" role="img" aria-labelledby="title desc">
  <title id="title">Humanity use cases capture</title>
  <desc id="desc">Editorial use-case sequence showing where Humanity Protocol wants to apply portable trust credentials across the internet.</desc>
  <defs>
    <filter id="grain" x="-20%" y="-20%" width="140%" height="140%">
      <feTurbulence type="fractalNoise" baseFrequency="0.8" numOctaves="2" stitchTiles="stitch" result="noise"/>
      <feColorMatrix in="noise" type="saturate" values="0"/>
      <feComponentTransfer>
        <feFuncA type="table" tableValues="0 0.05"/>
      </feComponentTransfer>
    </filter>
    <marker id="arrow" markerWidth="12" markerHeight="12" refX="10" refY="6" orient="auto">
      <path d="M0 0L12 6L0 12V0Z" fill="#2D2430"/>
    </marker>
  </defs>

  <rect width="1600" height="520" fill="#F1E6CF"/>
  <rect width="1600" height="520" fill="#F1E6CF" filter="url(#grain)"/>

  <rect x="56" y="44" width="1488" height="400" fill="#F6EEDB"/>
  <rect x="74" y="62" width="1488" height="400" fill="#2D2430"/>
  <rect x="56" y="44" width="1488" height="400" fill="#F6EEDB" stroke="#2D2430" stroke-width="3"/>

  <text x="98" y="104" fill="#2D2430" font-family="Georgia, 'Times New Roman', serif" font-size="36" font-weight="700">Where Humanity Tries To Matter</text>
  <text x="98" y="138" fill="#7D3A3E" font-family="Arial, Helvetica, sans-serif" font-size="17">
    <tspan x="98" dy="0">The use-case bet is larger than identity alone.</tspan>
    <tspan x="98" dy="22">Humanity is trying to turn trust into reusable infrastructure.</tspan>
  </text>

  <rect x="98" y="194" width="214" height="126" fill="#E7A0A4"/>
  <rect x="114" y="210" width="214" height="126" fill="#B3472F"/>
  <rect x="98" y="194" width="214" height="126" fill="#F7E9D7" stroke="#2D2430" stroke-width="3"/>
  <text x="205" y="236" text-anchor="middle" fill="#8C2F39" font-family="Arial, Helvetica, sans-serif" font-size="16" font-weight="700">FINANCE</text>
  <text x="205" y="272" text-anchor="middle" fill="#2D2430" font-family="Arial, Helvetica, sans-serif" font-size="14">
    <tspan x="205" dy="0">Portable KYC</tspan>
    <tspan x="205" dy="18">and access rails</tspan>
  </text>

  <rect x="376" y="194" width="214" height="126" fill="#D98858"/>
  <rect x="392" y="210" width="214" height="126" fill="#6B2B30"/>
  <rect x="376" y="194" width="214" height="126" fill="#F7E9D7" stroke="#2D2430" stroke-width="3"/>
  <text x="483" y="236" text-anchor="middle" fill="#8C2F39" font-family="Arial, Helvetica, sans-serif" font-size="16" font-weight="700">EVENTS</text>
  <text x="483" y="272" text-anchor="middle" fill="#2D2430" font-family="Arial, Helvetica, sans-serif" font-size="14">
    <tspan x="483" dy="0">Moongate tickets</tspan>
    <tspan x="483" dy="18">and identity gating</tspan>
  </text>

  <rect x="654" y="194" width="214" height="126" fill="#E7A0A4"/>
  <rect x="670" y="210" width="214" height="126" fill="#B3472F"/>
  <rect x="654" y="194" width="214" height="126" fill="#F7E9D7" stroke="#2D2430" stroke-width="3"/>
  <text x="761" y="236" text-anchor="middle" fill="#8C2F39" font-family="Arial, Helvetica, sans-serif" font-size="16" font-weight="700">EDUCATION</text>
  <text x="761" y="272" text-anchor="middle" fill="#2D2430" font-family="Arial, Helvetica, sans-serif" font-size="14">
    <tspan x="761" dy="0">Reusable learner</tspan>
    <tspan x="761" dy="18">credentials</tspan>
  </text>

  <rect x="932" y="194" width="230" height="126" fill="#D98858"/>
  <rect x="948" y="210" width="230" height="126" fill="#6B2B30"/>
  <rect x="932" y="194" width="230" height="126" fill="#F7E9D7" stroke="#2D2430" stroke-width="3"/>
  <text x="1047" y="236" text-anchor="middle" fill="#8C2F39" font-family="Arial, Helvetica, sans-serif" font-size="16" font-weight="700">OWNERSHIP</text>
  <text x="1047" y="272" text-anchor="middle" fill="#2D2430" font-family="Arial, Helvetica, sans-serif" font-size="14">
    <tspan x="1047" dy="0">RWA and asset-backed</tspan>
    <tspan x="1047" dy="18">identity claims</tspan>
  </text>

  <rect x="1226" y="194" width="238" height="126" fill="#E7A0A4"/>
  <rect x="1242" y="210" width="238" height="126" fill="#B3472F"/>
  <rect x="1226" y="194" width="238" height="126" fill="#F7E9D7" stroke="#2D2430" stroke-width="3"/>
  <text x="1345" y="236" text-anchor="middle" fill="#8C2F39" font-family="Arial, Helvetica, sans-serif" font-size="16" font-weight="700">COMMUNITIES</text>
  <text x="1345" y="272" text-anchor="middle" fill="#2D2430" font-family="Arial, Helvetica, sans-serif" font-size="14">
    <tspan x="1345" dy="0">Credential-based</tspan>
    <tspan x="1345" dy="18">member access</tspan>
  </text>

  <line x1="312" y1="257" x2="376" y2="257" stroke="#2D2430" stroke-width="4" marker-end="url(#arrow)"/>
  <line x1="590" y1="257" x2="654" y2="257" stroke="#2D2430" stroke-width="4" marker-end="url(#arrow)"/>
  <line x1="868" y1="257" x2="932" y2="257" stroke="#2D2430" stroke-width="4" marker-end="url(#arrow)"/>
  <line x1="1162" y1="257" x2="1226" y2="257" stroke="#2D2430" stroke-width="4" marker-end="url(#arrow)"/>

  <rect x="98" y="360" width="1366" height="76" fill="#E7A0A4"/>
  <rect x="114" y="378" width="1366" height="76" fill="#B3472F"/>
  <rect x="98" y="360" width="1366" height="76" fill="#F7E9D7" stroke="#2D2430" stroke-width="3"/>
  <text x="132" y="392" fill="#2D2430" font-family="Arial, Helvetica, sans-serif" font-size="17" font-weight="700">READ</text>
  <text x="238" y="392" fill="#2D2430" font-family="Arial, Helvetica, sans-serif" font-size="16">Humanity matters if identity can become a reusable trust utility across multiple categories, not one app alone.</text>
</svg>
